<svg width="100" height="101" viewBox="0 0 100 101" fill="none" xmlns="http://www.w3.org/2000/svg">
<path fill-rule="evenodd" clip-rule="evenodd" d="M96.5174 3.73281H3.24428L3.24428 97.006H96.5174V3.73281ZM3.24428 0.488525C1.45252 0.488525 0 1.94104 0 3.73281V97.006C0 98.7977 1.45252 100.25 3.24429 100.25H96.5174C98.3092 100.25 99.7617 98.7977 99.7617 97.006V3.73281C99.7617 1.94104 98.3092 0.488525 96.5174 0.488525H3.24428Z" fill="url(#paint0_linear)"/>
<path fill-rule="evenodd" clip-rule="evenodd" d="M8.11071 37.7978C8.11071 36.9019 8.83697 36.1756 9.73285 36.1756H90.0289C90.9248 36.1756 91.651 36.9019 91.651 37.7978C91.651 38.6937 90.9248 39.4199 90.0289 39.4199H9.73285C8.83697 39.4199 8.11071 38.6937 8.11071 37.7978Z" fill="url(#paint1_linear)"/>
<path fill-rule="evenodd" clip-rule="evenodd" d="M8.11071 84.0288C8.11071 83.133 8.83697 82.4067 9.73285 82.4067H90.0289C90.9248 82.4067 91.651 83.133 91.651 84.0288C91.651 84.9247 90.9248 85.651 90.0289 85.651H9.73285C8.83697 85.651 8.11071 84.9247 8.11071 84.0288Z" fill="url(#paint2_linear)"/>
<path fill-rule="evenodd" clip-rule="evenodd" d="M34.065 84.0288L34.065 37.7978H37.3093L37.3093 84.0288H34.065Z" fill="url(#paint3_linear)"/>
<path fill-rule="evenodd" clip-rule="evenodd" d="M65.6967 84.0288V37.7978H68.941V84.0288H65.6967Z" fill="url(#paint4_linear)"/>
<path d="M44.5595 50.2623H59.0419V53.0654L49.6108 71.0517H45.5814L54.9833 53.3282H44.5595V50.2623Z" fill="url(#paint5_linear)"/>
<path d="M12.9277 50.2623H27.4102V53.0654L17.979 71.0517H13.9496L23.3516 53.3282H12.9277V50.2623Z" fill="url(#paint6_linear)"/>
<path d="M75.3801 50.2623H89.8626V53.0654L80.4315 71.0517H76.4021L85.804 53.3282H75.3801V50.2623Z" fill="url(#paint7_linear)"/>
<path d="M56.775 18.0401C56.775 17.7756 56.5748 17.6112 56.1743 17.5468L50.7914 16.7641L48.3787 11.8849C48.243 11.5918 48.0677 11.4453 47.8532 11.4453C47.6389 11.4453 47.4637 11.5918 47.3278 11.8849L44.915 16.7641L39.5318 17.5468C39.1316 17.6112 38.9314 17.7756 38.9314 18.0401C38.9314 18.1903 39.0208 18.3619 39.1995 18.5549L43.1029 22.351L42.1807 27.7125C42.1664 27.8127 42.1593 27.8844 42.1593 27.9271C42.1593 28.0772 42.1968 28.204 42.2718 28.3078C42.3468 28.4117 42.4593 28.4634 42.6095 28.4634C42.7383 28.4634 42.8812 28.4206 43.0385 28.3348L47.8531 25.8038L52.6681 28.3348C52.8185 28.4206 52.9615 28.4634 53.0969 28.4634C53.2404 28.4634 53.3491 28.4117 53.4242 28.3078C53.499 28.2042 53.5365 28.0772 53.5365 27.9271C53.5365 27.8343 53.5329 27.7628 53.5257 27.7125L52.6035 22.351L56.496 18.5549C56.6822 18.369 56.775 18.1974 56.775 18.0401Z" fill="url(#paint8_linear)"/>
<path d="M37.3093 17.7511C37.3093 17.5587 37.1637 17.4391 36.8724 17.3923L32.9576 16.8231L31.2029 13.2746C31.1042 13.0614 30.9767 12.9549 30.8207 12.9549C30.6648 12.9549 30.5374 13.0614 30.4386 13.2746L28.6838 16.8231L24.7688 17.3923C24.4777 17.4391 24.3321 17.5587 24.3321 17.7511C24.3321 17.8603 24.3971 17.9851 24.5271 18.1255L27.3659 20.8863L26.6952 24.7856C26.6848 24.8584 26.6797 24.9106 26.6797 24.9416C26.6797 25.0508 26.7069 25.143 26.7615 25.2185C26.8161 25.294 26.8979 25.3316 27.0071 25.3316C27.1008 25.3316 27.2047 25.3006 27.3191 25.2381L30.8207 23.3974L34.3225 25.2381C34.4319 25.3006 34.5358 25.3316 34.6343 25.3316C34.7386 25.3316 34.8177 25.294 34.8723 25.2185C34.9267 25.1432 34.954 25.0508 34.954 24.9416C34.954 24.8741 34.9514 24.8221 34.9462 24.7856L34.2754 20.8863L37.1064 18.1255C37.2418 17.9903 37.3093 17.8655 37.3093 17.7511Z" fill="url(#paint9_linear)"/>
<path d="M71.3742 17.7511C71.3742 17.5587 71.2287 17.4391 70.9374 17.3923L67.0226 16.8231L65.2679 13.2746C65.1692 13.0614 65.0417 12.9549 64.8857 12.9549C64.7298 12.9549 64.6024 13.0614 64.5036 13.2746L62.7488 16.8231L58.8338 17.3923C58.5427 17.4391 58.3971 17.5587 58.3971 17.7511C58.3971 17.8603 58.4621 17.9851 58.5921 18.1255L61.4309 20.8863L60.7602 24.7856C60.7498 24.8584 60.7446 24.9106 60.7446 24.9416C60.7446 25.0508 60.7719 25.143 60.8265 25.2185C60.881 25.294 60.9629 25.3316 61.0721 25.3316C61.1658 25.3316 61.2697 25.3006 61.3841 25.2381L64.8856 23.3974L68.3875 25.2381C68.4968 25.3006 68.6008 25.3316 68.6993 25.3316C68.8036 25.3316 68.8827 25.294 68.9373 25.2185C68.9917 25.1432 69.019 25.0508 69.019 24.9416C69.019 24.8741 69.0164 24.8221 69.0112 24.7856L68.3404 20.8863L71.1714 18.1255C71.3067 17.9903 71.3742 17.8655 71.3742 17.7511Z" fill="url(#paint10_linear)"/>
<path d="M81.1071 17.4621C81.1071 17.3418 81.0161 17.2671 80.8341 17.2378L78.3873 16.8821L77.2906 14.6643C77.2289 14.531 77.1492 14.4644 77.0518 14.4644C76.9543 14.4644 76.8747 14.531 76.8129 14.6643L75.7162 16.8821L73.2693 17.2378C73.0874 17.2671 72.9964 17.3418 72.9964 17.4621C72.9964 17.5304 73.037 17.6083 73.1183 17.6961L74.8925 19.4216L74.4733 21.8586C74.4668 21.9042 74.4636 21.9367 74.4636 21.9562C74.4636 22.0244 74.4806 22.082 74.5147 22.1292C74.5488 22.1764 74.6 22.1999 74.6683 22.1999C74.7268 22.1999 74.7917 22.1805 74.8632 22.1415L77.0517 20.991L79.2404 22.1415C79.3087 22.1805 79.3737 22.1999 79.4353 22.1999C79.5005 22.1999 79.5499 22.1764 79.584 22.1292C79.618 22.0821 79.6351 22.0244 79.6351 21.9562C79.6351 21.914 79.6334 21.8815 79.6302 21.8586L79.211 19.4216L80.9803 17.6961C81.0649 17.6116 81.1071 17.5336 81.1071 17.4621Z" fill="url(#paint11_linear)"/>
<path d="M22.71 17.4621C22.71 17.3418 22.619 17.2671 22.437 17.2378L19.9902 16.8821L18.8935 14.6643C18.8318 14.531 18.7521 14.4644 18.6547 14.4644C18.5572 14.4644 18.4776 14.531 18.4158 14.6643L17.3191 16.8821L14.8722 17.2378C14.6903 17.2671 14.5993 17.3418 14.5993 17.4621C14.5993 17.5304 14.6399 17.6083 14.7212 17.6961L16.4954 19.4216L16.0762 21.8586C16.0697 21.9042 16.0665 21.9367 16.0665 21.9562C16.0665 22.0244 16.0835 22.082 16.1176 22.1292C16.1517 22.1764 16.2029 22.1999 16.2712 22.1999C16.3297 22.1999 16.3946 22.1805 16.4661 22.1415L18.6546 20.991L20.8432 22.1415C20.9116 22.1805 20.9766 22.1999 21.0381 22.1999C21.1033 22.1999 21.1528 22.1764 21.1869 22.1292C21.2209 22.0821 21.238 22.0244 21.238 21.9562C21.238 21.914 21.2363 21.8815 21.2331 21.8586L20.8138 19.4216L22.5832 17.6961C22.6678 17.6116 22.71 17.5336 22.71 17.4621Z" fill="url(#paint12_linear)"/>
<defs>
<linearGradient id="paint0_linear" x1="49.8809" y1="0.488525" x2="49.8809" y2="100.25" gradientUnits="userSpaceOnUse">
<stop offset="0.237569" stop-color="#78D600"/>
<stop offset="0.834254" stop-color="#135EC7"/>
</linearGradient>
<linearGradient id="paint1_linear" x1="49.8809" y1="0.488525" x2="49.8809" y2="100.25" gradientUnits="userSpaceOnUse">
<stop offset="0.237569" stop-color="#78D600"/>
<stop offset="0.834254" stop-color="#135EC7"/>
</linearGradient>
<linearGradient id="paint2_linear" x1="49.8809" y1="0.488525" x2="49.8809" y2="100.25" gradientUnits="userSpaceOnUse">
<stop offset="0.237569" stop-color="#78D600"/>
<stop offset="0.834254" stop-color="#135EC7"/>
</linearGradient>
<linearGradient id="paint3_linear" x1="49.8809" y1="0.488525" x2="49.8809" y2="100.25" gradientUnits="userSpaceOnUse">
<stop offset="0.237569" stop-color="#78D600"/>
<stop offset="0.834254" stop-color="#135EC7"/>
</linearGradient>
<linearGradient id="paint4_linear" x1="49.8809" y1="0.488525" x2="49.8809" y2="100.25" gradientUnits="userSpaceOnUse">
<stop offset="0.237569" stop-color="#78D600"/>
<stop offset="0.834254" stop-color="#135EC7"/>
</linearGradient>
<linearGradient id="paint5_linear" x1="49.8809" y1="0.488525" x2="49.8809" y2="100.25" gradientUnits="userSpaceOnUse">
<stop offset="0.237569" stop-color="#78D600"/>
<stop offset="0.834254" stop-color="#135EC7"/>
</linearGradient>
<linearGradient id="paint6_linear" x1="49.8809" y1="0.488525" x2="49.8809" y2="100.25" gradientUnits="userSpaceOnUse">
<stop offset="0.237569" stop-color="#78D600"/>
<stop offset="0.834254" stop-color="#135EC7"/>
</linearGradient>
<linearGradient id="paint7_linear" x1="49.8809" y1="0.488525" x2="49.8809" y2="100.25" gradientUnits="userSpaceOnUse">
<stop offset="0.237569" stop-color="#78D600"/>
<stop offset="0.834254" stop-color="#135EC7"/>
</linearGradient>
<linearGradient id="paint8_linear" x1="49.8809" y1="0.488525" x2="49.8809" y2="100.25" gradientUnits="userSpaceOnUse">
<stop offset="0.237569" stop-color="#78D600"/>
<stop offset="0.834254" stop-color="#135EC7"/>
</linearGradient>
<linearGradient id="paint9_linear" x1="49.8809" y1="0.488525" x2="49.8809" y2="100.25" gradientUnits="userSpaceOnUse">
<stop offset="0.237569" stop-color="#78D600"/>
<stop offset="0.834254" stop-color="#135EC7"/>
</linearGradient>
<linearGradient id="paint10_linear" x1="49.8809" y1="0.488525" x2="49.8809" y2="100.25" gradientUnits="userSpaceOnUse">
<stop offset="0.237569" stop-color="#78D600"/>
<stop offset="0.834254" stop-color="#135EC7"/>
</linearGradient>
<linearGradient id="paint11_linear" x1="49.8809" y1="0.488525" x2="49.8809" y2="100.25" gradientUnits="userSpaceOnUse">
<stop offset="0.237569" stop-color="#78D600"/>
<stop offset="0.834254" stop-color="#135EC7"/>
</linearGradient>
<linearGradient id="paint12_linear" x1="49.8809" y1="0.488525" x2="49.8809" y2="100.25" gradientUnits="userSpaceOnUse">
<stop offset="0.237569" stop-color="#78D600"/>
<stop offset="0.834254" stop-color="#135EC7"/>
</linearGradient>
</defs>
</svg>
